<svg width="983" height="1248" viewBox="0 0 983 1248" fill="none" xmlns="http://www.w3.org/2000/svg">
<g clip-path="url(#clip0_931_154)">
<path d="M702.28 857.87C645.28 912.48 567.88 942.55 484.28 942.55C419.34 942.55 354.83 924.24 297.67 889.55L0 708.94V780.78L316.14 972.65C369.25 1004.84 427.7 1020.43 484.29 1020.43C556.84 1020.43 626.35 994.81 677.64 945.66C715.13 909.73 735.84 866.66 734.93 824.86V819.66C725.338 833.446 714.401 846.246 702.28 857.87V857.87ZM702.28 744.4C645.28 799 567.88 829.08 484.28 829.08C419.34 829.08 354.83 810.76 297.67 776.08L0 595.47V667.3L316.14 859.16C369.25 891.36 427.7 907 484.29 907C556.84 907 626.35 881.38 677.64 832.23C715.13 796.3 735.84 753.23 734.93 711.44V706.13C725.35 719.943 714.412 732.764 702.28 744.4V744.4ZM702.28 971.4C645.28 1026 567.88 1056.08 484.28 1056.08C419.34 1056.08 354.83 1037.76 297.67 1003.08L0 822.42V894.26L316.14 1086.12C369.25 1118.32 427.7 1133.91 484.29 1133.91C556.84 1133.91 626.35 1108.28 677.64 1059.13C715.13 1023.21 735.84 980.13 734.93 938.35V933.13C725.339 946.923 714.402 959.729 702.28 971.36V971.4ZM702.28 1084.88C645.28 1139.48 567.88 1169.56 484.28 1169.56C419.34 1169.56 354.83 1151.24 297.67 1116.56L0 935.9V1007.74L316.14 1199.6C369.25 1231.8 427.7 1247.39 484.29 1247.39C556.84 1247.39 626.35 1221.77 677.64 1172.61C715.13 1136.69 735.84 1093.61 734.93 1051.83V1046.62C725.339 1060.41 714.402 1073.21 702.28 1084.84V1084.88ZM951.79 586.27C949.79 588.27 948 590.37 945.91 592.36C926.563 610.535 904.756 625.899 881.13 638C846.763 655.41 809.157 665.5 770.69 667.63H770.54V745.26H770.65C825 741.78 878.61 721 921.28 680.14C923.61 677.9 925.66 675.6 927.87 673.34C936.252 664.817 943.983 655.678 951 646C958.111 636.168 964.237 625.661 969.29 614.63C976.264 599.537 980.52 583.332 981.86 566.76C982.13 563.16 982.46 559.56 982.42 555.97V549.59C980.25 552.71 978.16 555.85 975.81 558.95C968.395 568.561 960.372 577.686 951.79 586.27V586.27ZM951.89 472.91C949.89 474.91 947.97 476.91 945.89 478.91C926.515 497.029 904.737 512.394 881.17 524.57C857.08 536.715 831.34 545.262 804.77 549.94C791.154 552.449 777.375 553.97 763.54 554.49C765.02 559.19 766.17 563.96 767.18 568.76C769.606 580.243 770.72 591.965 770.5 603.7V631.8H770.66C795.939 630.255 820.827 624.808 844.44 615.65C872.984 604.464 899.074 587.82 921.25 566.65C923.58 564.41 925.63 562.12 927.84 559.85C936.235 551.345 943.977 542.219 951 532.55C958.115 522.725 964.241 512.22 969.29 501.19C976.264 486.101 980.519 469.899 981.86 453.33C982.13 449.73 982.46 446.13 982.42 442.53V436.53C980.33 439.53 978.13 442.53 975.86 445.53C968.461 455.158 960.455 464.303 951.89 472.91V472.91ZM951.79 699.75C949.79 701.75 947.99 703.84 945.91 705.84C898.8 751 837.08 777.38 770.69 781.11H770.6V858.74H770.66C824.92 855.26 878.58 834.51 921.25 793.62C943.09 772.7 959.02 750.62 969.25 728.15C976.223 713.06 980.478 696.859 981.82 680.29C982.09 676.68 982.42 673.08 982.38 669.49V663.1C980.21 666.23 978.12 669.37 975.77 672.46C968.369 682.061 960.36 691.176 951.79 699.75ZM770.69 894.59V972.22C825 968.74 878.61 948 921.28 907.1C961.95 868.1 982.83 825.27 982.37 782.97V776.57C971.699 792.023 959.482 806.35 945.91 819.33C898.79 864.47 837.08 890.86 770.69 894.59ZM878.3 182.25L578 0L227.93 335.43L0 553.82L316.14 745.68C369.25 777.88 427.7 793.47 484.29 793.47C556.84 793.47 626.35 767.85 677.64 718.7C733.42 665.25 751.93 596.06 717.51 538.59C711.923 529.255 705.282 520.591 697.72 512.77C716.155 516.88 734.983 518.969 753.87 519H754.3C785.144 519.045 815.726 513.327 844.47 502.14C873.016 490.957 899.107 474.313 921.28 453.14C923.6 450.93 925.8 448.69 927.98 446.45C936.345 437.94 944.06 428.814 951.06 419.15C958.16 409.33 964.273 398.832 969.31 387.81C976.302 372.776 980.597 356.631 982 340.11C986.32 283.66 953 227.53 878.3 182.25ZM589.3 657.48C533.09 711.36 442.61 719.3 369 674.66L150.25 541.89L346.58 353.71L569 488.74C649.19 537.34 644.77 604.36 589.33 657.48H589.3ZM829.8 396.23C776 447.8 689 462.79 615.33 418.14L409.67 293.29L597.17 113.48L799.11 236.07C874.62 281.85 884.43 343.9 829.83 396.23H829.8Z" fill="url(#paint0_linear_931_154)"/>
</g>
<defs>
<linearGradient id="paint0_linear_931_154" x1="392.22" y1="1235.97" x2="609.18" y2="5.49998" gradientUnits="userSpaceOnUse">
<stop offset="0.07" stop-color="#F4BE7E"/>
<stop offset="0.34" stop-color="#F4BE7E"/>
<stop offset="0.53" stop-color="#F4BE7E"/>
</linearGradient>
<clipPath id="clip0_931_154">
<rect width="982.38" height="1247.39" fill="white"/>
</clipPath>
</defs>
</svg>
