<svg width="338" height="429" viewBox="0 0 338 429" fill="none" xmlns="http://www.w3.org/2000/svg">
<g clip-path="url(#clip0_831_4280)">
<path d="M303 166.05C307.836 163.076 312.344 159.6 316.45 155.68C317.24 154.91 318 154.15 318.75 153.38C321.621 150.453 324.272 147.318 326.68 144C329.134 140.626 331.251 137.018 333 133.23C335.401 128.061 336.873 122.51 337.35 116.83C338.84 97.44 327.35 78.16 301.73 62.61L198.56 0L78.3 115.23L0 190.25L108.6 256.16C125.992 266.805 145.969 272.48 166.36 272.57C191.28 272.57 215.16 263.77 232.78 246.88C251.94 228.52 258.3 204.76 246.48 185.01C244.557 181.805 242.276 178.829 239.68 176.14C246.022 177.559 252.501 178.28 259 178.29H259.15C269.754 178.309 280.268 176.345 290.15 172.5C294.616 170.736 298.917 168.577 303 166.05ZM202.45 225.86C183.13 244.37 152.05 247.09 126.75 231.76L51.61 186.15L119.06 121.51L195.47 167.89C223 184.58 221.49 207.61 202.45 225.86ZM211.38 143.64L140.73 100.75L205.14 39L274.51 81.1C300.45 96.82 303.82 118.1 285.06 136.1C275.333 145.313 262.831 151.049 249.504 152.413C236.176 153.776 222.771 150.692 211.38 143.64ZM241.24 333.64C221.67 352.39 195.07 362.73 166.36 362.73C143.731 362.639 121.56 356.344 102.26 344.53L0 282.52V307.19L108.6 373.1C125.992 383.748 145.968 389.427 166.36 389.52C191.28 389.52 215.16 380.71 232.78 363.83C245.66 351.49 252.78 336.7 252.46 322.34V320.55C249.163 325.287 245.405 329.685 241.24 333.68V333.64ZM241.24 294.64C221.67 313.39 195.07 323.72 166.36 323.72C143.733 323.628 121.563 317.337 102.26 305.53L0 243.53V268.21L108.6 334.12C125.992 344.768 145.968 350.447 166.36 350.54C191.28 350.54 215.16 341.73 232.78 324.85C245.66 312.51 252.78 297.72 252.46 283.35V281.57C249.163 286.307 245.405 290.705 241.24 294.7V294.64ZM241.24 255.64C221.67 274.4 195.07 284.73 166.36 284.73C143.733 284.638 121.563 278.347 102.26 266.54L0 204.55V229.23L108.6 295.14C125.992 305.785 145.969 311.46 166.36 311.55C191.28 311.55 215.16 302.75 232.78 285.87C245.66 273.52 252.78 258.74 252.46 244.37V242.55C249.171 247.302 245.412 251.711 241.24 255.71V255.64ZM324.94 281.38C308.617 296.929 287.256 306.105 264.74 307.24V334C284.096 332.926 302.438 324.996 316.48 311.63C330.48 298.25 337.62 283.52 337.48 268.99V266.8C333.808 272.096 329.607 277.005 324.94 281.45V281.38ZM241.24 372.59C221.67 391.35 195.07 401.68 166.36 401.68C143.731 401.589 121.56 395.294 102.26 383.48L0 321.5V346.18L108.6 412.08C125.992 422.728 145.968 428.407 166.36 428.5C191.28 428.5 215.16 419.7 232.78 402.81C245.66 390.47 252.78 375.68 252.46 361.32V359.53C249.169 364.271 245.41 368.67 241.24 372.66V372.59ZM327 162.45C326.32 163.14 325.65 163.83 324.95 164.51C321.618 167.648 318.062 170.538 314.31 173.16C310.622 175.777 306.745 178.117 302.71 180.16C294.437 184.334 285.596 187.268 276.47 188.87C271.794 189.737 267.062 190.262 262.31 190.44C262.81 192.05 263.21 193.69 263.56 195.34C264.393 199.284 264.775 203.31 264.7 207.34V217H264.75C273.436 216.468 281.987 214.596 290.1 211.45C299.906 207.612 308.87 201.899 316.49 194.63C317.29 193.86 317.99 193.07 318.75 192.29C321.624 189.366 324.275 186.23 326.68 182.91C329.132 179.545 331.249 175.948 333 172.17C335.397 166.984 336.859 161.415 337.32 155.72C337.41 154.49 337.52 153.25 337.51 152.02V150C336.79 151.027 336.04 152.057 335.26 153.09C332.711 156.385 329.952 159.511 327 162.45ZM327 240.37C326.31 241.07 325.69 241.78 325 242.47C308.674 258.016 287.315 267.191 264.8 268.33V295C284.156 293.926 302.498 285.996 316.54 272.63C323.412 266.249 328.999 258.611 333 250.13C335.395 244.947 336.858 239.381 337.32 233.69C337.41 232.45 337.52 231.22 337.51 229.98V227.79C336.77 228.86 336.05 229.94 335.24 231C332.7 234.299 329.948 237.429 327 240.37ZM327 201.37C326.31 202.07 325.69 202.78 325 203.47C321.674 206.61 318.121 209.501 314.37 212.12C310.672 214.738 306.784 217.077 302.74 219.12C290.936 225.107 278.016 228.573 264.8 229.3V256C284.155 254.922 302.496 246.992 316.54 233.63C317.34 232.86 318.04 232.07 318.8 231.29C321.674 228.366 324.325 225.23 326.73 221.91C329.166 218.537 331.266 214.933 333 211.15C335.395 205.967 336.858 200.401 337.32 194.71C337.41 193.47 337.52 192.23 337.51 191V188.8C336.77 189.88 336.05 190.96 335.24 192.02C332.7 195.319 329.948 198.449 327 201.39V201.37Z" fill="#121212"/>
</g>
<defs>
<clipPath id="clip0_831_4280">
<rect width="337.46" height="428.5" fill="white"/>
</clipPath>
</defs>
</svg>
